<svg xmlns="http://www.w3.org/2000/svg" xmlns:xlink="http://www.w3.org/1999/xlink" width="500" zoomAndPan="magnify" viewBox="0 0 375 374.999991" height="500" preserveAspectRatio="xMidYMid meet" version="1.0"><defs><g/><clipPath id="2b7314f999"><path d="M 127 60 L 217 60 L 217 168 L 127 168 Z M 127 60 " clip-rule="nonzero"/></clipPath><clipPath id="dbb129816f"><path d="M 89.597656 21.882812 L 227.484375 27.5 L 221.527344 173.628906 L 83.644531 168.011719 Z M 89.597656 21.882812 " clip-rule="nonzero"/></clipPath><clipPath id="3318ba9229"><path d="M 89.597656 21.882812 L 227.484375 27.5 L 221.527344 173.628906 L 83.644531 168.011719 Z M 89.597656 21.882812 " clip-rule="nonzero"/></clipPath><clipPath id="bca2b2f6cf"><path d="M 95 22 L 171 22 L 171 127 L 95 127 Z M 95 22 " clip-rule="nonzero"/></clipPath><clipPath id="d2953c0d3f"><path d="M 89.597656 21.882812 L 227.484375 27.5 L 221.527344 173.628906 L 83.644531 168.011719 Z M 89.597656 21.882812 " clip-rule="nonzero"/></clipPath><clipPath id="d934ac9276"><path d="M 89.597656 21.882812 L 227.484375 27.5 L 221.527344 173.628906 L 83.644531 168.011719 Z M 89.597656 21.882812 " clip-rule="nonzero"/></clipPath></defs><g fill="#92c730" fill-opacity="1"><g transform="translate(37.500002, 353.393489)"><g><path d="M 14.015625 0 L 14.015625 -243.40625 L 52.53125 -243.40625 L 52.53125 -36.765625 L 108.5625 -36.765625 L 108.5625 0 Z M 14.015625 0 "/></g></g></g><g fill="#356f3a" fill-opacity="1"><g transform="translate(151.324213, 353.393489)"><g><path d="M 14.015625 -225.890625 L 52.53125 -245.15625 L 52.53125 -210.125 L 14.015625 -190.875 Z M 14.015625 0 L 14.015625 -173.359375 L 52.53125 -192.625 L 52.53125 0 Z M 14.015625 0 "/></g></g></g><g fill="#92c730" fill-opacity="1"><g transform="translate(217.87499, 353.393489)"><g><path d="M 52.53125 -206.625 L 52.53125 -141.140625 L 106.8125 -169.15625 L 106.8125 -126.078125 L 52.53125 -98.0625 L 52.53125 0 L 14.015625 0 L 14.015625 -210.125 C 14.015625 -219.46875 17.109375 -227.347656 23.296875 -233.765625 C 29.484375 -240.191406 36.894531 -243.40625 45.53125 -243.40625 L 84.046875 -243.40625 C 92.691406 -243.40625 100.109375 -240.191406 106.296875 -233.765625 C 112.484375 -227.347656 115.578125 -219.46875 115.578125 -210.125 L 115.578125 -193.671875 L 77.046875 -174.40625 L 77.046875 -206.625 Z M 52.53125 -206.625 "/></g></g></g><g clip-path="url(#2b7314f999)"><g clip-path="url(#dbb129816f)"><g clip-path="url(#3318ba9229)"><path fill="#356f3a" d="M 205.671875 145.480469 C 189.960938 168.894531 171.777344 171.355469 154.949219 163.449219 C 155.1875 159.988281 155.609375 156.261719 156.28125 152.347656 C 160.675781 126.6875 195.304688 85.214844 195.71875 84.71875 C 195.308594 85.035156 160.875 111.414062 148.207031 145.617188 C 146.601562 149.953125 145.488281 153.847656 144.769531 157.347656 C 127.421875 144.640625 119.742188 125.59375 137.222656 99.546875 C 155.441406 72.398438 212.984375 60.617188 212.984375 60.617188 C 212.984375 60.617188 223.890625 118.335938 205.671875 145.480469 Z M 205.671875 145.480469 " fill-opacity="1" fill-rule="nonzero"/></g></g></g><g clip-path="url(#bca2b2f6cf)"><g clip-path="url(#d2953c0d3f)"><g clip-path="url(#d934ac9276)"><path fill="#356f3a" d="M 170.828125 68.449219 C 158.03125 73.882812 144.851562 81.257812 136.398438 90.765625 C 125.148438 71.484375 115.761719 50.933594 115.542969 50.339844 C 115.621094 50.960938 119.949219 73.570312 131.722656 97.03125 C 124.691406 108.046875 122.203125 117.785156 123.046875 126.296875 C 114.753906 123.039062 107.136719 115.746094 100.949219 103.011719 C 87.433594 75.199219 105.191406 22.566406 105.191406 22.566406 C 105.191406 22.566406 156.949219 40.910156 170.828125 68.449219 Z M 170.828125 68.449219 " fill-opacity="1" fill-rule="nonzero"/></g></g></g></svg>